<svg fill="none" height="26" width="152" xmlns="http://www.w3.org/2000/svg">
<g fill="#006D6C">
<path d="m121.244 14.588-6.663-10.91-.025-.041h-2.755v17.876l1.328-1.322V6.82l6.711 11.008h.957l6.976-11.434v15h2.915V3.637h-2.756zm-78.938 1.948L32.154 3.67l-.025-.032h-2.727v17.876l1.328-1.322V6.465l11.652 14.786.112.142h1.14V3.637h-1.328zM63.43 5.41a8.94 8.94 0 0 0-4.274-1.864 9.68 9.68 0 0 0-8.596 3.13 8.94 8.94 0 0 0-2.074 4.172c-.32 1.575-.186 3.197.405 4.82.59 1.623 1.528 2.954 2.788 3.954a8.83 8.83 0 0 0 4.268 1.852q.678.1 1.364.1a9.7 9.7 0 0 0 3.334-.601 9.5 9.5 0 0 0 3.896-2.627 8.85 8.85 0 0 0 2.08-4.162c.32-1.575.186-3.197-.405-4.82S64.69 6.411 63.43 5.41m.579 9.277c-.128 1.283-.535 2.371-1.2 3.238a5.64 5.64 0 0 1-2.585 1.879 5.7 5.7 0 0 1-3.206.227c-1.075-.232-2.083-.805-2.992-1.71-.91-.904-1.68-2.161-2.245-3.707-.564-1.545-.792-3.004-.669-4.29.122-1.27.527-2.351 1.203-3.224a5.83 5.83 0 0 1 5.788-2.109c1.07.235 2.077.807 2.993 1.7s1.69 2.152 2.257 3.71c.567 1.56.79 2.989.656 4.286m14.581 3.188 6.368-14.188.024-.05h1.447l-7.941 17.706-.024.05h-1.47L69.032 3.637h3.167zm25.17-12.466a8.96 8.96 0 0 0-4.275-1.863 9.68 9.68 0 0 0-8.593 3.129 8.94 8.94 0 0 0-2.074 4.168c-.32 1.575-.186 3.196.405 4.82.59 1.625 1.529 2.954 2.788 3.954a8.85 8.85 0 0 0 4.268 1.852q.679.1 1.365.1a9.7 9.7 0 0 0 3.333-.6 9.5 9.5 0 0 0 3.896-2.628 8.84 8.84 0 0 0 2.08-4.162c.32-1.575.186-3.196-.405-4.82-.591-1.623-1.529-2.948-2.788-3.95m.578 9.278c-.129 1.282-.535 2.371-1.199 3.238a5.65 5.65 0 0 1-2.586 1.878 5.7 5.7 0 0 1-3.206.228c-1.075-.232-2.083-.807-2.993-1.71s-1.678-2.16-2.244-3.706c-.565-1.545-.793-3.004-.669-4.292.123-1.27.527-2.35 1.203-3.224a5.87 5.87 0 0 1 4.576-2.244q.613 0 1.212.133c1.069.235 2.077.806 2.993 1.699.915.892 1.692 2.156 2.259 3.716.566 1.56.783 2.985.654 4.284m39.496-11-.022-.05h-1.47l-7.963 17.756h1.447l2.645-5.914h7.469l2.671 5.914h3.164zm1.547 10.525h-6.322l3.162-7.079zM11.078 1.057c-2.191 0-4.333.65-6.155 1.871a11.1 11.1 0 0 0-4.08 4.984 11.13 11.13 0 0 0 2.402 12.101 11.05 11.05 0 0 0 12.073 2.407 11.1 11.1 0 0 0 4.97-4.09 11.124 11.124 0 0 0-1.377-14.02 11.06 11.06 0 0 0-7.833-3.253m4.09 17.003a12.6 12.6 0 0 1-2.3-.82 13 13 0 0 1-2.09-1.2 10.5 10.5 0 0 1-2.083-1.918q-.602-.741-1.055-1.581v5.74H6.096V6.643l-.013-.576.905.2c.79.198 1.561.473 2.3.82.73.336 1.43.738 2.09 1.2a10.6 10.6 0 0 1 2.082 1.918q.609.748 1.068 1.597V6.046h1.544v11.796l.01.418z"></path>
<path d="M13.59 13.194a9 9 0 0 0-1.257-2.064c-1.446-1.764-3.474-2.704-4.669-3.132.048.32.117.7.219 1.116.165.692.393 1.368.68 2.018.327.74.75 1.435 1.258 2.064 1.446 1.765 3.475 2.704 4.67 3.132-.049-.32-.119-.7-.219-1.116a12 12 0 0 0-.682-2.018"></path>
</g>
</svg>
