<?xml version="1.0" encoding="UTF-8"?><svg id="a" xmlns="http://www.w3.org/2000/svg" viewBox="0 0 517.92 116.4"><defs><style>.b{fill:#c1d66e;}.c{fill:#fff;}.d{fill:#63a832;}.e{fill:#f07f1c;}.f{fill:#778794;}.g{fill:#95c122;}.h{fill:#27426f;}</style></defs><path class="c" d="M64.8,0h453.12c0,38.8,0,77.6,0,116.4-149.12,0-298.24,0-447.36,0,.06-.14,.1-.3,.18-.43,6.43-10.02,9.48-20.98,9.17-32.87-.1-3.67-.47-7.31-1.46-10.87v-.71c.1-.17,.22-.33,.28-.51,3.21-9.5,4.42-19.24,3.63-29.24-.67-8.48-2.81-16.57-6.33-24.3-2.9-6.37-6.74-12.13-11.24-17.47ZM332.57,85.46l-.3-.37c.11-.65,.21-1.29,.32-1.95-2.18-.2-2.17-.19-2.57,1.74-.83,4.06-1.66,8.12-2.5,12.18-.32,1.58-.65,3.15-.99,4.78,.86,.09,1.52,.16,2.22-.05,.65-3.13,1.3-6.25,1.96-9.37,1.03-4.83,3.01-6.8,7.61-7.53,.01-.74,.47-1.45,.29-2.3-2.54-.07-4.53,.91-6.06,2.86Zm36.03,14.35c.05,.06,.11,.11,.18,.15-.1,.62-.19,1.23-.29,1.85,2.15,.29,2.14,.29,2.53-1.6,.85-4.14,1.72-8.27,2.57-12.41,.32-1.54,.62-3.09,.94-4.68h-2.2c-.76,3.59-1.44,7.15-2.27,10.67-.62,2.65-1.9,4.93-4.57,6.07-1.7,.72-3.5,.88-5.02-.28-1.5-1.14-1.1-2.87-.79-4.44,.8-3.98,1.63-7.96,2.46-11.98-.76-.16-1.45-.12-2.24-.05-.93,4.62-2.01,9.17-2.7,13.77-.54,3.58,1.39,5.43,5.03,5.52,2.53,.06,4.52-1.08,6.37-2.61Zm105.99-58.85c-.07,.14-.13,.22-.13,.29-.01,.84-.02,1.68-.03,2.52-.07,6.04,2.76,10.27,8.11,12.89,3.76,1.84,7.8,2.49,11.95,2.72,5.66,.31,11.16-.26,16.35-2.74,5.51-2.63,7.89-7.32,6.56-13.04-.99-4.24-3.95-6.62-7.84-8.04-5.01-1.83-10.25-2.71-15.48-3.63-3.06-.54-6.16-1.03-8.98-2.43-4.22-2.1-4.5-7.44-.58-10.06,1.01-.67,2.12-1.14,3.29-1.41,5.38-1.23,10.77-1.22,16.14,.01,3.55,.81,5.67,3.1,6.5,6.61,.28,1.19,.46,2.41,.68,3.61h5.51c.02-6.81-3.2-11.76-8.55-14.11-5.37-2.35-11.03-2.36-16.73-1.99-3.04,.2-6,.82-8.83,2.03-7.86,3.38-7.87,12.6-4.33,16.67,1.96,2.25,4.48,3.56,7.26,4.45,5.11,1.63,10.4,2.46,15.63,3.58,2.61,.56,5.25,1.05,7.68,2.23,1.47,.71,2.54,1.75,2.93,3.42,.77,3.26-.38,5.83-3.45,7.5-2.43,1.32-5.08,1.9-7.81,2.1-4.73,.35-9.44,.24-13.93-1.57-3.53-1.42-5.76-3.98-6.2-7.85-.14-1.21-.02-2.46-.02-3.76h-5.71Zm-139.83-5.2c0,.24,0,.48,0,.72,.14,10.88,5.98,18.72,16.36,21.68,6.71,1.91,13.51,1.85,20.21-.14,5.87-1.74,10.5-5.21,13.39-10.7,2.38-4.52,2.93-9.39,2.44-14.43-.92-9.35-5.93-15.47-14.71-18.49-6.3-2.16-12.79-2.18-19.28-.97-5,.93-9.41,3.06-12.91,6.81-4.07,4.37-5.52,9.69-5.49,15.53Zm-126.02,23.16V12.58h-5.75v19.51h-32.34V12.54h-5.66V58.85h5.75v-21.4h32.33v21.45h5.67ZM107.6,12.48V58.87h5.77v-19.29h1.45c5.36,0,10.72,.02,16.07,0,2.97-.02,5.89-.48,8.7-1.46,6.72-2.34,9.79-6.62,9.41-13.28-.29-5.11-2.8-8.73-7.6-10.65-3.08-1.23-6.32-1.68-9.62-1.68-7.64-.02-15.27,0-22.91,0-.4,0-.79,0-1.28,0Zm112.23,0c.35,.38,.5,.56,.67,.73,7.38,7.54,14.75,15.09,22.16,22.6,.73,.74,1.05,1.46,1.04,2.51-.04,6.48,0,12.95-.04,19.43,0,.91,.19,1.32,1.19,1.24,1.11-.09,2.24-.09,3.36,0,1.07,.09,1.35-.28,1.34-1.34-.05-6.6-.01-13.19-.04-19.79,0-.74,.22-1.28,.73-1.8,5.88-5.99,11.74-12,17.6-18.01,1.74-1.78,3.46-3.59,5.37-5.57-2.31,0-4.34,.04-6.36-.02-.83-.02-1.41,.22-1.99,.81-4.7,4.8-9.42,9.57-14.14,14.35-1.37,1.39-2.74,2.77-4.17,4.21-.41-.39-.74-.67-1.04-.98-5.78-5.86-11.56-11.73-17.35-17.58-.35-.35-.63-.8-1.26-.8-2.27,.03-4.54,.01-7.07,.01Zm84.53,5.17h18.09v-5.1h-42.02v5.16h18.12V58.89h5.8V17.65Zm98.96-5.14V58.89h35.55v-5.16h-29.92V12.51h-5.62Zm49.37,.02V58.88h5.61V12.54h-5.61Zm-21.62,78.98c1.14,.2,2.13,.02,3.11-.1,4.46-.52,7.65-3.06,8.72-6.92,1.4-5.05-.59-8.72-5.43-9.76-3.15-.68-6.38-.2-9.57-.32-.64-.02-.64,.43-.72,.87-.6,3.26-1.21,6.51-1.81,9.77-1.06,5.76-2.11,11.53-3.18,17.33h4.91c1.48-7.85,2.95-15.61,4.42-23.37,.07-.39,.1-.75,.6-.92,1.59-.53,4.24,.35,5.14,1.76,1.84,2.87,.38,6.99-2.86,8.06-.91,.3-1.86,.42-2.88,.4-.16,1.07-.3,2.08-.47,3.19Zm-105.69-8.12c.31-3.48-1.38-6.47-4.55-7.53-5.16-1.72-9.95-.8-13.86,3.02-4.53,4.43-6,10.11-5.41,16.26,.4,4.21,2.81,6.7,6.63,7.26,4.34,.63,8.26-.33,11.43-3.58,.23-.23,.34-.64,.82-.61,0,1.24-.61,2.39-.55,3.62,2.04,.2,2.04,.2,2.4-1.61,.29-1.45,.6-2.89,.9-4.34,.51-2.48,1.01-4.96,1.53-7.49h-11.01c.04,.74-.47,1.36-.17,2.2h8.31c-1.01,4.54-3.26,7.9-7.76,9.32-5.81,1.83-10.3-1.46-10.15-7.53,.1-3.95,1.32-7.62,3.7-10.81,2.21-2.95,5.24-4.36,8.92-4.28,3.07,.07,5.45,1.81,6.16,4.41q.48,1.76,2.35,1.72c.08,0,.16-.02,.31-.03Zm188.77,14.75c-.82,.37-1.53,.71-2.26,1-.74,.3-1.52,.44-2.32,.52-3.7,.36-5.72-2.07-4.69-5.72,.7,0,1.42,.02,2.14,0,2.9-.12,5.74-.48,8.18-2.23,2.08-1.49,2.98-4.09,2.25-6.33-.69-2.12-2.52-3.28-5.29-3.27-6.54,.02-13.22,5.41-12.36,14.37,.24,2.49,1.34,4.69,3.79,5.7,4.15,1.69,7.92,.3,11.66-1.62-.42-.9-.76-1.65-1.11-2.4Zm-38.58-4.04c.11-.05,.18-.11,.25-.11,.44-.02,.88-.02,1.32-.03,3.23-.1,6.37-.38,9.09-2.49,1.47-1.13,2.55-3.28,2.23-5.34-.32-2.04-1.54-3.32-3.51-3.78-3.28-.78-6.28,.12-8.97,1.96-3.82,2.62-5.47,6.43-5.47,10.98,0,4.37,2.46,7.22,6.57,7.54,3.23,.25,6.2-.64,8.99-2.34-.4-.86-.76-1.61-1.13-2.41-1.04,.57-2.04,1.06-3.13,1.34-4.42,1.12-6.55-.61-6.31-5.13,0-.04,.03-.07,.07-.19Zm10.26,15.7c.62,.21,1.2,.12,1.79-.02,4.13-.98,6.23-3.81,7-7.77,1.37-7.04,2.69-14.08,4-21.13,.39-2.1,.92-4.18,1.1-6.35h-4.77c-.08,.23-.17,.41-.2,.6-.91,4.9-1.81,9.81-2.72,14.71-.75,4.04-1.42,8.1-2.27,12.12-.41,1.95-1.08,3.89-3.3,4.64-.33,.11-.32,.43-.35,.7-.1,.83-.18,1.65-.27,2.5Zm-22.7-34.86h-5.06c-1.68,9.17-3.34,18.29-5.02,27.48h14.85c.2-1.18,.39-2.31,.6-3.57h-9.87c1.51-8.04,3-15.94,4.5-23.91Zm-287.42,27.45c.81,.13,1.56,.14,2.32,0,.1-.37,.2-.71,.28-1.06,.88-3.73,1.72-7.47,2.66-11.18,.55-2.15,1.85-3.71,4.09-4.27,2.52-.63,3.82,.66,3.24,3.18-.39,1.71-.81,3.42-1.22,5.13-.64,2.71-1.27,5.43-1.92,8.19,.86,.16,1.6,.17,2.34,.01,.1-.41,.18-.76,.26-1.11,1.04-4.47,2.12-8.93,3.09-13.41,.44-2.04-.57-3.51-2.49-3.79-2.28-.33-4.37,.14-6.07,1.83-.26,.26-.44,.65-.87,.73-.8-2.19-1.61-2.69-4.12-2.63-1.93,.05-3.48,.97-4.85,2.26-.38-.65,.21-1.17-.03-1.74h-1.99c-1.4,5.95-2.8,11.88-4.2,17.81,2.28,.39,2.26,.39,2.74-1.64,.81-3.5,1.61-7,2.51-10.48,.58-2.23,1.92-3.84,4.28-4.39,2.32-.53,3.61,.72,3.09,3.02-1.03,4.51-2.09,9-3.15,13.54Zm202.15-3.25c1.1,1.97,2.6,2.83,4.48,3.13,2.55,.41,4.86-.18,6.87-1.75,3.57-2.8,4.9-6.71,5.02-11.05,.14-5.35-3.68-8.09-8.84-6.54-1.83,.55-3.33,1.6-4.79,3.16,.21-1.15,.38-2.03,.55-2.98h-2.2c-1.8,8.69-3.6,17.37-5.41,26.11h2.22c.69-3.29,1.37-6.55,2.11-10.07Zm35.04-6.11c.47-1.83,.55-3.53,.37-5.25-.28-2.69-1.99-4.53-4.66-5.05-3-.57-5.65,.25-7.87,2.25-3.68,3.33-4.98,7.62-4.44,12.45,.23,2.07,1.45,3.59,3.43,4.41,4.62,1.91,10.69-.93,12.29-5.77-1.28-.17-2.39-.27-3.11,1.26-.62,1.33-1.93,2.1-3.31,2.61-3.17,1.15-6.15-.13-6.88-2.96-.33-1.29-.33-2.59,.08-3.96h14.1Zm-291.56-14.75c-.44-.02-.76,0-1.07-.06-1.59-.33-2.38,.45-3.12,1.81-2.89,5.33-5.93,10.58-8.9,15.87-1.21,2.14-2.41,4.29-3.63,6.46,1.73,.39,2.91,.14,3.61-1.63,.63-1.58,1.6-3.03,2.43-4.53,.19-.34,.31-.72,.84-.72,2.94,.02,5.89,0,8.89,0l.55,6.92c.92,.08,1.74,.14,2.64-.04-.74-8.03-1.48-15.99-2.23-24.09Zm71.36,30.15c.63-2.63,1.26-5.23,1.96-8.16,.63,1.86,1.78,2.54,3.29,2.67,3.02,.26,5.41-.85,7.03-3.42,2.12-3.36,3.02-7.11,3-11.05-.01-2.49-1.22-4-3.3-4.37-2.22-.4-4.29,.01-6.04,1.56-.26,.23-.42,.59-.83,.63-.16-.6,.41-1.14,.12-1.73-1.92-.21-1.91-.21-2.31,1.52-1.17,4.97-2.35,9.93-3.51,14.9-.58,2.46-1.15,4.93-1.74,7.46h2.34Zm162.72-18.13c.01-4.26-1.62-6.77-4.52-7.47-2.38-.57-4.69-.31-6.86,.85-4.48,2.41-7.37,9.13-6.03,14.03,.67,2.47,2.29,3.97,4.78,4.49,2.28,.47,4.48,.13,6.47-1.06,4.33-2.6,5.85-6.74,6.16-10.84Zm-137.07,10.15c.17,1.91,.55,2.18,2.28,2.28,1.23,.07,1.79-.37,1.71-1.6-1.45-.34-1.58-.55-1.23-2.06,.81-3.46,1.64-6.91,2.44-10.38,.6-2.6-.32-4.15-2.81-4.58-1.87-.32-3.75-.24-5.53,.56-2.16,.98-3.27,2.72-3.77,5.01h2.26c.13-.36,.24-.66,.35-.95,.94-2.39,3.27-3.53,5.73-2.85,.72,.2,1.22,.6,1.44,1.3,.53,1.72-.72,3.94-2.48,4.39-1.66,.43-3.34,.78-5,1.25-3.08,.87-4.86,3.05-5.14,6.21-.2,2.27,1.08,3.75,3.38,3.9,2.43,.16,4.61-.34,6.38-2.49Zm-52.99-10.63c0-.56,.05-1.12,0-1.68-.23-2.25-1.66-3.81-3.86-4.1-2.93-.38-5.52,.41-7.39,2.78-2.63,3.33-3.68,7.25-3.52,11.43,.1,2.72,1.6,4.34,3.99,4.65,2.94,.38,5.48-.48,7.37-2.82,2.41-2.98,3.24-6.52,3.43-10.25Zm114.71-.06c0-.56,.05-1.12,0-1.68-.25-2.21-1.75-3.79-3.92-4.05-2.94-.35-5.51,.47-7.37,2.84-2.59,3.31-3.62,7.19-3.49,11.32,.09,2.73,1.55,4.36,3.94,4.69,2.84,.4,5.33-.37,7.23-2.59,2.58-3.02,3.43-6.68,3.62-10.53Zm-42.73,12.67c1.12-4.76,2.29-9.45,3.31-14.17,.55-2.56-.86-4.12-3.49-4.28-2.43-.14-4.43,.74-6.14,2.4-.22-.35-.08-.61,0-.86,.08-.31,.17-.61,.07-.93-1.93-.29-1.92-.29-2.36,1.55-.75,3.18-1.51,6.36-2.26,9.54-.52,2.23-1.04,4.46-1.57,6.74h2.31c.12-.46,.24-.87,.34-1.29,.87-3.65,1.72-7.3,2.61-10.94,.51-2.09,1.76-3.57,3.85-4.22,1.25-.39,2.58-.55,3.63,.43,.99,.93,.58,2.14,.38,3.28-.01,.08-.06,.15-.08,.23-.97,4.15-1.95,8.29-2.92,12.47,.79,.17,1.5,.1,2.35,.06Zm6.64-17.9c.41,5.04,.77,9.93,1.24,14.82,.2,2.11,.28,4.09-1.24,5.83-.87,1-1.84,1.7-3.19,1.56-1.34-.14-1.65,.5-1.56,1.69,1.92,.11,3.79,.23,5.38-1.1,.91-.76,1.55-1.71,2.1-2.74,3.4-6.33,6.8-12.66,10.18-18.99,.17-.32,.53-.62,.3-1.06q-2.16-.16-3.07,1.68c-1.2,2.43-2.4,4.87-3.6,7.3-1.02,2.05-2.05,4.1-3.23,6.47-.29-5.41-.56-10.43-.82-15.45h-2.49Zm204.29,17.9c1.19-6.61,2.38-13.19,3.57-19.78h-4.63c-1.29,6.63-2.56,13.17-3.84,19.78h4.91Zm-298.58-12.73c.53-3.3-.68-5.26-3.52-5.64-3.08-.42-5.76,.48-7.64,3-2.57,3.46-3.56,7.47-3.34,11.74,.12,2.36,1.47,3.73,3.67,4.09,.66,.11,1.36,.09,2.03,.07,3.25-.14,6.76-3.33,7.07-6.4-1.3-.24-2.32-.21-2.84,1.41-.43,1.34-1.48,2.35-2.85,2.93-2.52,1.06-4.61-.02-4.65-2.7-.04-3.64,.84-7.12,2.8-10.25,.45-.71,1.08-1.28,1.84-1.69,2.89-1.54,5.19-.17,5.17,3.07,0,.11,.05,.22,.09,.38h2.18Zm138.53-5.19c.19-.84,.34-1.5,.49-2.16,.05-.19,.11-.38,.18-.57,.5-1.45,1.23-2.13,2.73-2.02,1.35,.09,1.53-.58,1.53-1.6-5.11-1.02-6.75,2.08-7.26,6.25q-2.99,.2-3.02,1.84h2.55c-1.28,5.47-2.53,10.77-3.77,16.09q2.28,.37,2.75-1.68c.4-1.75,.81-3.5,1.22-5.25,.73-3.06,1.46-6.11,2.21-9.21,.78,0,1.46,0,2.14,0q1.55,0,1.63-1.69h-3.36Zm164.93-8.31c0-1.7-.92-2.74-2.43-2.76-1.64-.02-2.9,1.34-2.9,3.12,0,1.69,1.04,2.77,2.61,2.74,1.65-.03,2.72-1.25,2.72-3.1Z"/><path class="c" d="M70.08,116.4H0C0,77.6,0,38.8,0,0c21.52,0,43.04,0,64.56,0-8.76,6.46-16.21,14.16-22.17,23.29-4.67,7.16-8.32,14.79-10.7,23.02-.31,.18-.61,.37-.93,.54C13.98,55.41,3.85,68.95,.31,87.44c-.14,.72,.05,1.06,.75,1.32,14.58,5.57,29.58,7.48,45.07,5.2,.3,.32,.61,.63,.89,.97,6.53,7.95,13.98,14.92,22.41,20.83,.25,.17,.6,.26,.66,.63Z"/><path class="b" d="M31.7,46.31c2.37-8.23,6.03-15.86,10.7-23.02C48.35,14.16,55.8,6.46,64.56,0h.24c4.5,5.34,8.34,11.1,11.24,17.47,3.52,7.73,5.66,15.81,6.33,24.3,.79,10.01-.42,19.74-3.63,29.24-.06,.18-.18,.34-.27,.51-.95-2.65-1.52-5.42-2.73-8.08-.37,.35-.69,.64-.99,.95-2.99,3.06-6.07,6.02-9.43,8.66-1.47,1.16-2.92,2.33-4.38,3.5-.08,0-.16,0-.24-.01-.06-.1-.11-.23-.19-.29-4.5-3.28-9.34-5.91-14.65-7.64-1.77-5.94-2.86-12.02-3.6-18.17-.29-2.45-.49-4.91-.74-7.44-.56,.14-1.02,.25-1.47,.36-2.88,.71-5.58,1.91-8.33,2.96Z"/><path class="g" d="M60.69,76.54c.08,.01,.16,.02,.24,.01,3.89,2.81,7.23,6.2,10.4,9.89,1.89-2.87,3.34-5.79,4.76-8.74,.86-1.8,1.36-3.74,2.37-5.47,.99,3.55,1.36,7.2,1.46,10.87,.31,11.89-2.74,22.86-9.17,32.87-.08,.13-.12,.29-.18,.43h-.48c-.06-.38-.41-.46-.66-.63-8.43-5.92-15.88-12.88-22.41-20.83-.28-.34-.59-.65-.89-.97-.02-.05-.01-.09,.01-.14,2.89-.32,5.76-.76,8.64-1.6l-4.16-9.34,.02-.11c3.56-1.74,6.81-4,10.06-6.24Z"/><path class="f" d="M474.59,40.95h5.71c0,1.3-.12,2.54,.02,3.76,.44,3.87,2.67,6.42,6.2,7.85,4.49,1.81,9.19,1.92,13.93,1.57,2.73-.2,5.38-.78,7.81-2.1,3.07-1.66,4.22-4.24,3.45-7.5-.39-1.67-1.46-2.7-2.93-3.42-2.43-1.18-5.07-1.67-7.68-2.23-5.23-1.12-10.52-1.95-15.63-3.58-2.78-.89-5.3-2.2-7.26-4.45-3.54-4.07-3.53-13.29,4.33-16.67,2.83-1.22,5.78-1.83,8.83-2.03,5.69-.37,11.35-.36,16.73,1.99,5.36,2.35,8.57,7.3,8.55,14.11h-5.51c-.23-1.2-.41-2.42-.68-3.61-.82-3.51-2.94-5.8-6.5-6.61-5.37-1.23-10.76-1.24-16.14-.01-1.17,.27-2.28,.74-3.29,1.41-3.92,2.62-3.63,7.96,.58,10.06,2.82,1.4,5.92,1.89,8.98,2.43,5.23,.92,10.47,1.8,15.48,3.63,3.88,1.42,6.85,3.8,7.84,8.04,1.33,5.72-1.05,10.41-6.56,13.04-5.19,2.48-10.69,3.05-16.35,2.74-4.15-.23-8.19-.87-11.95-2.72-5.34-2.62-8.18-6.85-8.11-12.89,0-.84,.01-1.68,.03-2.52,0-.07,.06-.14,.13-.29Z"/><path class="f" d="M334.76,35.75c-.03-5.83,1.42-11.16,5.49-15.53,3.5-3.76,7.91-5.89,12.91-6.81,6.5-1.21,12.98-1.19,19.28,.97,8.79,3.01,13.8,9.14,14.71,18.49,.49,5.04-.06,9.91-2.44,14.43-2.89,5.49-7.52,8.96-13.39,10.7-6.69,1.99-13.49,2.06-20.21,.14-10.39-2.96-16.22-10.8-16.36-21.68,0-.24,0-.48,0-.72Zm26.24,18.52c1.97,.04,3.91-.14,5.84-.52,5.48-1.07,9.95-3.67,12.62-8.76,1.85-3.53,2.24-7.34,1.96-11.28-.5-7.05-4.47-12.34-11.18-14.49-5.94-1.91-11.97-1.94-17.93-.17-5.49,1.63-9.31,5.16-10.94,10.78-.87,2.99-1.01,6.05-.58,9.14,.75,5.38,3.3,9.62,8.01,12.43,3.75,2.24,7.91,2.86,12.2,2.89Z"/><path class="f" d="M208.74,58.9h-5.67v-21.45h-32.33v21.4h-5.75V12.54h5.66v19.55h32.34V12.58h5.75V58.9Z"/><path class="f" d="M107.6,12.48c.49,0,.89,0,1.28,0,7.64,0,15.27-.01,22.91,0,3.3,0,6.53,.45,9.62,1.68,4.8,1.92,7.31,5.54,7.6,10.65,.37,6.66-2.69,10.94-9.41,13.28-2.81,.98-5.73,1.45-8.7,1.46-5.36,.03-10.72,0-16.07,0h-1.45v19.29h-5.77V12.48Zm5.82,5.2v16.64c.26,.03,.41,.07,.57,.07,5.84,0,11.67,.02,17.51,0,3.09-.01,6.04-.59,8.63-2.41,3.87-2.73,4.17-8.55,.61-11.67-2.02-1.78-4.5-2.46-7.08-2.52-4.99-.13-9.99-.08-14.99-.1-1.72,0-3.43,0-5.24,0Z"/><path class="f" d="M219.83,12.48c2.53,0,4.8,.02,7.07-.01,.63,0,.91,.44,1.26,.8,5.79,5.86,11.57,11.72,17.35,17.58,.3,.31,.63,.59,1.04,.98,1.42-1.44,2.8-2.82,4.17-4.21,4.72-4.78,9.45-9.55,14.14-14.35,.58-.59,1.17-.84,1.99-.81,2.02,.06,4.05,.02,6.36,.02-1.91,1.99-3.63,3.79-5.37,5.57-5.86,6.01-11.72,12.01-17.6,18.01-.51,.52-.74,1.06-.73,1.8,.02,6.6,0,13.19,.04,19.79,0,1.06-.27,1.43-1.34,1.34-1.11-.09-2.24-.09-3.36,0-1,.08-1.2-.33-1.19-1.24,.03-6.48,0-12.95,.04-19.43,0-1.04-.31-1.77-1.04-2.51-7.41-7.51-14.78-15.06-22.16-22.6-.16-.17-.32-.35-.67-.73Z"/><path class="f" d="M304.36,17.65V58.89h-5.8V17.71h-18.12v-5.16h42.02v5.1h-18.09Z"/><path class="f" d="M403.32,12.51h5.62V53.73h29.92v5.16h-35.55V12.51Z"/><path class="f" d="M452.69,12.54h5.61V58.88h-5.61V12.54Z"/><path class="h" d="M431.07,91.52c.16-1.12,.31-2.13,.47-3.19,1.03,.02,1.97-.1,2.88-.4,3.24-1.06,4.7-5.19,2.86-8.06-.9-1.41-3.56-2.29-5.14-1.76-.5,.17-.53,.54-.6,.92-1.47,7.76-2.93,15.52-4.42,23.37h-4.91c1.06-5.81,2.12-11.57,3.18-17.33,.6-3.26,1.21-6.51,1.81-9.77,.08-.44,.08-.9,.72-.87,3.19,.12,6.41-.35,9.57,.32,4.84,1.04,6.83,4.71,5.43,9.76-1.07,3.86-4.26,6.4-8.72,6.92-.98,.11-1.97,.3-3.11,.1Z"/><path class="h" d="M325.38,83.4c-.15,.02-.23,.03-.31,.03q-1.87,.04-2.35-1.72c-.71-2.61-3.1-4.35-6.16-4.41-3.68-.08-6.72,1.32-8.92,4.28-2.38,3.19-3.61,6.86-3.7,10.81-.15,6.07,4.35,9.36,10.15,7.53,4.5-1.42,6.76-4.78,7.76-9.32h-8.31c-.3-.83,.21-1.46,.17-2.2h11.01c-.52,2.53-1.02,5.01-1.53,7.49-.3,1.45-.61,2.89-.9,4.34-.37,1.82-.36,1.82-2.4,1.61-.06-1.23,.56-2.38,.55-3.62-.48-.03-.59,.38-.82,.61-3.17,3.24-7.1,4.21-11.43,3.58-3.82-.56-6.23-3.05-6.63-7.26-.58-6.14,.89-11.83,5.41-16.26,3.9-3.82,8.7-4.74,13.86-3.02,3.17,1.06,4.86,4.05,4.55,7.53Z"/><path class="h" d="M514.15,98.15c.35,.76,.69,1.5,1.11,2.4-3.74,1.93-7.51,3.32-11.66,1.62-2.46-1-3.55-3.2-3.79-5.7-.87-8.96,5.82-14.35,12.36-14.37,2.77,0,4.6,1.15,5.29,3.27,.73,2.24-.17,4.84-2.25,6.33-2.44,1.75-5.29,2.11-8.18,2.23-.72,.03-1.44,0-2.14,0-1.03,3.66,.99,6.08,4.69,5.72,.8-.08,1.58-.22,2.32-.52,.73-.29,1.44-.64,2.26-1Zm-8.88-7.02c1.72,.22,3.42,.06,5.06-.44,1.29-.39,2.4-1.11,2.99-2.38,.43-.93,.66-1.93-.03-2.83-.67-.87-1.65-.78-2.63-.68-2.53,.27-5.28,3.52-5.39,6.33Z"/><path class="h" d="M475.57,94.11c-.05,.12-.07,.15-.07,.19-.24,4.53,1.89,6.25,6.31,5.13,1.09-.28,2.09-.76,3.13-1.34,.37,.8,.73,1.55,1.13,2.41-2.79,1.7-5.76,2.59-8.99,2.34-4.11-.32-6.57-3.17-6.57-7.54,0-4.55,1.65-8.36,5.47-10.98,2.68-1.84,5.68-2.74,8.97-1.96,1.97,.47,3.19,1.74,3.51,3.78,.32,2.05-.76,4.2-2.23,5.34-2.72,2.1-5.86,2.39-9.09,2.49-.44,.01-.88,.01-1.32,.03-.07,0-.14,.06-.25,.11Zm.53-2.98c1.96,.2,3.81,.04,5.59-.65,1.11-.43,1.99-1.15,2.49-2.28,.41-.92,.62-1.85-.06-2.71-.68-.87-1.67-.87-2.63-.67-3.12,.67-4.48,2.38-5.39,6.3Z"/><path class="d" d="M78.45,72.23c-1.01,1.73-1.51,3.67-2.37,5.47-1.41,2.95-2.87,5.87-4.76,8.74-3.17-3.69-6.51-7.09-10.4-9.89,1.46-1.17,2.91-2.34,4.38-3.5,3.37-2.65,6.45-5.6,9.43-8.66,.3-.31,.63-.6,.99-.95,1.21,2.65,1.78,5.43,2.73,8.08v.71Z"/><path class="h" d="M485.83,109.8c.09-.85,.17-1.68,.27-2.5,.03-.27,.02-.59,.35-.7,2.23-.74,2.89-2.68,3.3-4.64,.85-4.02,1.52-8.08,2.27-12.12,.9-4.9,1.81-9.81,2.72-14.71,.04-.19,.12-.38,.2-.6h4.77c-.18,2.17-.71,4.25-1.1,6.35-1.3,7.05-2.63,14.1-4,21.13-.77,3.96-2.87,6.8-7,7.77-.58,.14-1.17,.23-1.79,.02Z"/><path class="h" d="M463.13,74.94c-1.5,7.97-2.99,15.88-4.5,23.91h9.87c-.21,1.26-.4,2.39-.6,3.57h-14.85c1.68-9.19,3.35-18.31,5.02-27.48h5.06Z"/><path class="f" d="M175.71,102.39c1.06-4.54,2.12-9.04,3.15-13.54,.53-2.3-.77-3.55-3.09-3.02-2.37,.54-3.71,2.15-4.28,4.39-.9,3.48-1.69,6.98-2.51,10.48-.47,2.03-.45,2.03-2.74,1.64,1.4-5.93,2.8-11.86,4.2-17.81h1.99c.23,.57-.36,1.08,.03,1.74,1.37-1.29,2.92-2.22,4.85-2.26,2.51-.06,3.33,.44,4.12,2.63,.43-.07,.61-.47,.87-.73,1.7-1.7,3.79-2.17,6.07-1.83,1.92,.28,2.93,1.76,2.49,3.79-.97,4.48-2.05,8.94-3.09,13.41-.08,.35-.16,.69-.26,1.11-.75,.16-1.48,.14-2.34-.01,.65-2.76,1.28-5.47,1.92-8.19,.4-1.71,.82-3.42,1.22-5.13,.58-2.52-.72-3.81-3.24-3.18-2.24,.56-3.55,2.12-4.09,4.27-.94,3.71-1.78,7.45-2.66,11.18-.08,.35-.18,.69-.28,1.06-.77,.14-1.51,.13-2.32,0Z"/><path class="h" d="M377.86,99.14c-.74,3.52-1.42,6.78-2.11,10.07h-2.22c1.81-8.74,3.61-17.42,5.41-26.11h2.2c-.17,.95-.34,1.83-.55,2.98,1.46-1.55,2.96-2.61,4.79-3.16,5.16-1.56,8.98,1.19,8.84,6.54-.12,4.34-1.44,8.26-5.02,11.05-2,1.57-4.32,2.16-6.87,1.75-1.88-.3-3.37-1.17-4.48-3.13Zm1.1-4.57c0,.61,.07,1.19,.19,1.79,.62,2.97,2.85,4.47,5.82,3.88,1.94-.39,3.43-1.45,4.57-3.04,1.64-2.28,2.31-4.91,2.35-7.65,.03-2.97-1.86-4.83-4.73-4.9-1.95-.05-3.59,.69-4.94,2.05-2.17,2.17-3,4.92-3.25,7.89Z"/><path class="h" d="M412.89,93.04h-14.1c-.41,1.37-.41,2.67-.08,3.96,.73,2.83,3.71,4.11,6.88,2.96,1.38-.5,2.69-1.27,3.31-2.61,.71-1.53,1.83-1.44,3.11-1.26-1.59,4.84-7.67,7.68-12.29,5.77-1.98-.82-3.2-2.34-3.43-4.41-.54-4.84,.76-9.12,4.44-12.45,2.22-2.01,4.88-2.83,7.87-2.25,2.67,.51,4.38,2.36,4.66,5.05,.18,1.72,.1,3.42-.37,5.25Zm-2.07-1.94c1.03-2.72-.28-5.65-2.79-6.3-3.65-.95-8.37,2.47-8.66,6.3h11.44Z"/><path class="f" d="M121.34,78.29c.75,8.09,1.49,16.06,2.23,24.09-.9,.18-1.72,.12-2.64,.04l-.55-6.92c-3,0-5.94,0-8.89,0-.53,0-.65,.38-.84,.72-.83,1.5-1.8,2.95-2.43,4.53-.7,1.77-1.88,2.01-3.61,1.63,1.22-2.17,2.42-4.32,3.63-6.46,2.98-5.28,6.01-10.54,8.9-15.87,.74-1.36,1.53-2.13,3.12-1.81,.31,.06,.63,.04,1.07,.06Zm-1.92,2.19l-.27-.06c-2.35,4.35-4.69,8.7-7.06,13.1h8.21c-.3-4.41-.59-8.72-.88-13.04Z"/><path class="f" d="M192.69,108.44h-2.34c.59-2.53,1.16-5,1.74-7.46,1.17-4.97,2.35-9.93,3.51-14.9,.41-1.72,.4-1.73,2.31-1.52,.29,.59-.28,1.13-.12,1.73,.41-.04,.57-.41,.83-.63,1.75-1.54,3.82-1.96,6.04-1.56,2.08,.37,3.28,1.88,3.3,4.37,.02,3.94-.88,7.68-3,11.05-1.62,2.57-4.02,3.68-7.03,3.42-1.51-.13-2.65-.81-3.29-2.67-.7,2.93-1.33,5.53-1.96,8.16Zm12.78-18.66c-.04-1.54-.04-2.94-1.41-3.67-1.51-.8-2.95-.36-4.27,.55-.49,.33-.97,.74-1.3,1.23-2.15,3.24-2.92,6.89-2.8,10.69,.06,1.93,1.31,2.77,3.27,2.66,2.01-.11,3.32-1.26,4.2-2.94,1.42-2.73,2.07-5.68,2.31-8.52Z"/><path class="h" d="M355.42,90.31c-.31,4.1-1.82,8.24-6.16,10.84-1.99,1.2-4.19,1.54-6.47,1.06-2.49-.52-4.11-2.02-4.78-4.49-1.33-4.9,1.55-11.63,6.03-14.03,2.17-1.16,4.48-1.42,6.86-.85,2.9,.7,4.53,3.2,4.52,7.47Zm-15.28,4.11c0,4.36,2.2,6.38,5.81,5.87,1.46-.21,2.74-.85,3.76-1.93,2.59-2.71,3.51-6.03,3.23-9.67-.17-2.23-1.49-3.64-3.38-3.95-1.97-.32-3.82,0-5.43,1.26-2.9,2.29-3.75,5.5-4,8.41Z"/><path class="f" d="M218.35,100.46c-1.77,2.15-3.95,2.65-6.38,2.49-2.29-.15-3.58-1.63-3.38-3.9,.28-3.16,2.06-5.34,5.14-6.21,1.65-.46,3.33-.82,5-1.25,1.76-.45,3.01-2.67,2.48-4.39-.22-.71-.72-1.11-1.44-1.3-2.47-.69-4.8,.46-5.73,2.85-.12,.3-.22,.59-.35,.95h-2.26c.5-2.29,1.61-4.04,3.77-5.01,1.78-.8,3.66-.88,5.53-.56,2.5,.43,3.41,1.98,2.81,4.58-.79,3.46-1.63,6.92-2.44,10.38-.35,1.51-.22,1.72,1.23,2.06,.08,1.23-.48,1.67-1.71,1.6-1.73-.1-2.11-.37-2.28-2.28Zm1.84-7.79c-2,.89-3.89,1.03-5.67,1.63-1.89,.64-2.96,1.96-3.28,3.9-.32,1.93,.88,3.23,2.81,3.03,1.76-.19,3.18-.98,4.21-2.45,1.23-1.76,1.43-3.83,1.93-6.11Z"/><path class="h" d="M368.61,99.8c-1.85,1.53-3.84,2.67-6.37,2.61-3.65-.09-5.57-1.94-5.03-5.52,.69-4.6,1.78-9.15,2.7-13.77,.79-.07,1.48-.12,2.24,.05-.83,4.02-1.66,8-2.46,11.98-.32,1.58-.72,3.3,.79,4.44,1.52,1.15,3.32,1,5.02,.28,2.67-1.14,3.95-3.41,4.57-6.07,.83-3.52,1.51-7.08,2.27-10.67h2.2c-.32,1.59-.62,3.13-.94,4.68-.85,4.14-1.72,8.27-2.57,12.41-.39,1.89-.38,1.89-2.53,1.6,.1-.62,.19-1.23,.29-1.85,0-.1,.06-.25,.02-.28-.12-.09-.16,.03-.2,.13Z"/><path class="f" d="M165.36,89.83c-.18,3.73-1.02,7.27-3.43,10.25-1.89,2.34-4.43,3.2-7.37,2.82-2.39-.31-3.89-1.92-3.99-4.65-.15-4.18,.89-8.1,3.52-11.43,1.87-2.36,4.46-3.16,7.39-2.78,2.2,.29,3.64,1.85,3.86,4.1,.06,.55,0,1.12,0,1.68Zm-2.38,.09c0-.61-.04-1.2-.2-1.79-.48-1.86-1.79-2.71-3.67-2.36-1.37,.26-2.46,.99-3.21,2.12-2.12,3.19-3.06,6.74-2.75,10.56,.17,2.12,1.87,3.15,3.96,2.65,1.6-.38,2.66-1.42,3.45-2.76,1.54-2.59,2.14-5.47,2.42-8.43Z"/><path class="f" d="M280.07,89.77c-.19,3.85-1.04,7.51-3.62,10.53-1.9,2.22-4.39,2.99-7.23,2.59-2.39-.33-3.85-1.96-3.94-4.69-.13-4.14,.9-8.01,3.49-11.32,1.86-2.37,4.43-3.18,7.37-2.84,2.17,.26,3.67,1.84,3.92,4.05,.06,.55,0,1.12,0,1.68Zm-12.27,6.59c-.1,2.78,.51,4.13,1.83,4.64,1.53,.6,3.42,.04,4.74-1.44,.42-.47,.81-1,1.1-1.56,.41-.77,.8-1.57,1.05-2.41,.74-2.44,1.55-4.89,.95-7.5-.41-1.81-1.75-2.66-3.56-2.34-1.75,.3-2.94,1.39-3.79,2.86-1.49,2.57-2.15,5.38-2.33,7.74Z"/><path class="f" d="M237.34,102.44c-.85,.05-1.56,.12-2.35-.06,.98-4.17,1.95-8.32,2.92-12.47,.02-.08,.06-.15,.08-.23,.2-1.13,.62-2.35-.38-3.28-1.05-.98-2.38-.82-3.63-.43-2.09,.65-3.33,2.13-3.85,4.22-.89,3.64-1.74,7.29-2.61,10.94-.1,.42-.22,.84-.34,1.29h-2.31c.53-2.28,1.05-4.51,1.57-6.74,.75-3.18,1.51-6.36,2.26-9.54,.43-1.84,.43-1.84,2.36-1.55,.1,.32,.01,.62-.07,.93-.07,.26-.22,.51,0,.86,1.72-1.66,3.72-2.54,6.14-2.4,2.63,.16,4.05,1.72,3.49,4.28-1.02,4.72-2.19,9.4-3.31,14.17Z"/><path class="f" d="M243.98,84.54h2.49c.27,5.01,.53,10.04,.82,15.45,1.19-2.37,2.21-4.41,3.23-6.47,1.21-2.43,2.4-4.87,3.6-7.3q.91-1.84,3.07-1.68c.23,.44-.13,.75-.3,1.06-3.39,6.34-6.78,12.66-10.18,18.99-.55,1.03-1.2,1.98-2.1,2.74-1.59,1.33-3.46,1.21-5.38,1.1-.09-1.19,.22-1.83,1.56-1.69,1.34,.14,2.31-.56,3.19-1.56,1.52-1.74,1.45-3.72,1.24-5.83-.47-4.88-.82-9.78-1.24-14.82Z"/><path class="h" d="M448.27,102.43h-4.91c1.28-6.61,2.56-13.15,3.84-19.78h4.63c-1.19,6.59-2.38,13.17-3.57,19.78Z"/><path class="f" d="M149.7,89.7h-2.18c-.04-.16-.09-.27-.09-.38,.02-3.25-2.27-4.62-5.17-3.07-.76,.4-1.39,.98-1.84,1.69-1.96,3.13-2.84,6.62-2.8,10.25,.03,2.68,2.12,3.76,4.65,2.7,1.37-.57,2.42-1.59,2.85-2.93,.52-1.63,1.55-1.65,2.84-1.41-.31,3.07-3.82,6.26-7.07,6.4-.68,.03-1.37,.04-2.03-.07-2.2-.36-3.55-1.73-3.67-4.09-.22-4.27,.77-8.27,3.34-11.74,1.88-2.53,4.56-3.42,7.64-3,2.85,.39,4.06,2.34,3.52,5.64Z"/><path class="f" d="M288.23,84.51h3.36q-.08,1.69-1.63,1.69c-.68,0-1.35,0-2.14,0-.74,3.1-1.48,6.15-2.21,9.21-.42,1.75-.82,3.5-1.22,5.25q-.47,2.05-2.75,1.68c1.25-5.31,2.49-10.62,3.77-16.09h-2.55q.03-1.65,3.02-1.84c.51-4.17,2.15-7.28,7.26-6.25,0,1.02-.18,1.7-1.53,1.6-1.5-.1-2.23,.57-2.73,2.02-.06,.19-.13,.38-.18,.57-.15,.66-.3,1.32-.49,2.16Z"/><path class="h" d="M332.57,85.46c1.53-1.94,3.52-2.93,6.06-2.86,.18,.85-.28,1.55-.29,2.3-4.6,.73-6.58,2.7-7.61,7.53-.66,3.12-1.31,6.24-1.96,9.37-.7,.21-1.36,.13-2.22,.05,.34-1.62,.66-3.2,.99-4.78,.83-4.06,1.67-8.12,2.5-12.18,.39-1.93,.38-1.94,2.57-1.74-.11,.65-.21,1.3-.32,1.95-.12,.25-.2,.5-.07,.78,.23-.05,.3-.23,.37-.41Z"/><path class="h" d="M453.16,76.2c0,1.85-1.07,3.07-2.72,3.1-1.57,.03-2.61-1.06-2.61-2.74,0-1.78,1.26-3.14,2.9-3.12,1.51,.02,2.43,1.06,2.43,2.76Z"/><path class="e" d="M46.14,93.83s-.03,.09-.01,.14c-15.49,2.28-30.49,.38-45.07-5.2-.7-.27-.89-.61-.75-1.32,3.54-18.49,13.68-32.04,30.46-40.59,.32-.16,.62-.36,.93-.54,2.76-1.05,5.46-2.25,8.33-2.96,.46-.11,.91-.22,1.47-.36,.25,2.54,.45,5,.74,7.44,.74,6.15,1.83,12.22,3.6,18.17,1.14,4.88,2.92,9.54,4.78,14.17l-.02,.11c-2.98,1.65-6.08,3.07-9.27,4.53,1.56,2.29,3.13,4.39,4.8,6.42Z"/><path class="c" d="M50.62,82.78c-1.86-4.63-3.65-9.29-4.78-14.17,5.31,1.73,10.15,4.36,14.65,7.64,.09,.06,.13,.19,.19,.29-3.25,2.24-6.5,4.5-10.06,6.24Z"/><path class="d" d="M46.14,93.83c-1.67-2.03-3.24-4.13-4.8-6.42,3.19-1.45,6.28-2.88,9.27-4.53,1.37,3.07,2.74,6.14,4.16,9.34-2.88,.85-5.75,1.28-8.64,1.6Z"/><path class="c" d="M361,54.27c-4.29-.03-8.45-.65-12.2-2.89-4.71-2.81-7.26-7.05-8.01-12.43-.43-3.09-.28-6.15,.58-9.14,1.63-5.61,5.45-9.15,10.94-10.78,5.95-1.76,11.99-1.73,17.93,.17,6.7,2.16,10.68,7.44,11.18,14.49,.28,3.94-.1,7.75-1.96,11.28-2.67,5.1-7.14,7.69-12.62,8.76-1.92,.38-3.87,.56-5.84,.52Z"/><path class="c" d="M113.42,17.68c1.81,0,3.53,0,5.24,0,5,.02,10-.04,14.99,.1,2.58,.07,5.06,.75,7.08,2.52,3.56,3.13,3.26,8.94-.61,11.67-2.59,1.83-5.54,2.4-8.63,2.41-5.84,.02-11.67,0-17.51,0-.16,0-.31-.04-.57-.07V17.68Z"/><path class="c" d="M505.28,91.13c.11-2.81,2.85-6.06,5.39-6.33,.98-.1,1.96-.19,2.63,.68,.7,.9,.47,1.9,.03,2.83-.59,1.28-1.7,1.99-2.99,2.38-1.65,.5-3.34,.66-5.06,.44Z"/><path class="c" d="M476.11,91.12c.91-3.92,2.27-5.63,5.39-6.3,.96-.21,1.95-.2,2.63,.67,.68,.86,.47,1.79,.06,2.71-.5,1.12-1.37,1.85-2.49,2.28-1.78,.69-3.63,.85-5.59,.65Z"/><path class="c" d="M378.95,94.58c.25-2.97,1.08-5.71,3.25-7.89,1.35-1.35,2.99-2.1,4.94-2.05,2.87,.07,4.77,1.93,4.73,4.9-.03,2.75-.71,5.37-2.35,7.65-1.14,1.58-2.63,2.65-4.57,3.04-2.97,.59-5.2-.9-5.82-3.88-.12-.59-.2-1.18-.19-1.79Z"/><path class="c" d="M410.82,91.1h-11.44c.29-3.83,5.01-7.25,8.66-6.3,2.51,.65,3.82,3.58,2.79,6.3Z"/><path class="c" d="M119.41,80.47c.29,4.31,.58,8.63,.88,13.04h-8.21c2.37-4.4,4.72-8.75,7.06-13.1l.27,.06Z"/><path class="c" d="M205.48,89.78c-.24,2.84-.9,5.79-2.31,8.52-.88,1.69-2.19,2.84-4.2,2.94-1.96,.11-3.21-.73-3.27-2.66-.12-3.81,.66-7.45,2.8-10.69,.32-.48,.81-.89,1.3-1.23,1.32-.91,2.76-1.35,4.27-.55,1.38,.73,1.37,2.13,1.41,3.67Z"/><path class="c" d="M340.14,94.42c.25-2.91,1.09-6.12,4-8.41,1.6-1.26,3.46-1.58,5.43-1.26,1.89,.31,3.21,1.71,3.38,3.95,.28,3.64-.64,6.96-3.23,9.67-1.02,1.07-2.3,1.72-3.76,1.93-3.61,.51-5.81-1.51-5.81-5.87Z"/><path class="c" d="M220.19,92.67c-.5,2.28-.7,4.34-1.93,6.11-1.02,1.47-2.45,2.26-4.21,2.45-1.93,.21-3.13-1.09-2.81-3.03,.32-1.94,1.39-3.27,3.28-3.9,1.78-.6,3.67-.74,5.67-1.63Z"/><path class="c" d="M368.61,99.8c.03-.1,.08-.22,.2-.13,.04,.03-.01,.18-.02,.28-.06-.05-.12-.1-.18-.15Z"/><path class="c" d="M162.98,89.93c-.27,2.96-.88,5.83-2.42,8.43-.79,1.34-1.86,2.38-3.45,2.76-2.1,.5-3.8-.53-3.96-2.65-.3-3.81,.63-7.36,2.75-10.56,.75-1.13,1.84-1.87,3.21-2.12,1.88-.35,3.19,.5,3.67,2.36,.15,.59,.2,1.18,.2,1.79Z"/><path class="c" d="M267.8,96.36c.18-2.36,.84-5.17,2.33-7.74,.85-1.47,2.04-2.55,3.79-2.86,1.82-.31,3.15,.54,3.56,2.34,.59,2.61-.21,5.06-.95,7.5-.25,.83-.64,1.63-1.05,2.41-.3,.56-.68,1.08-1.1,1.56-1.32,1.48-3.21,2.04-4.74,1.44-1.32-.52-1.94-1.86-1.83-4.64Z"/><path class="c" d="M332.57,85.46c-.07,.18-.14,.36-.37,.41-.13-.28-.05-.53,.07-.78l.3,.37Z"/></svg>